<?xml version="1.0" encoding="iso-8859-1"?>
<!-- Generator: Adobe Illustrator 19.0.0, SVG Export Plug-In . SVG Version: 6.00 Build 0)  -->
<svg xmlns="http://www.w3.org/2000/svg" xmlns:xlink="http://www.w3.org/1999/xlink" version="1.1" id="Capa_1" x="0px" y="0px" viewBox="0 0 465.001 465.001" style="enable-background:new 0 0 465.001 465.001;" xml:space="preserve" width="32" height="32">
<g>
	<polygon style="fill:#FF6A2E;" points="457.5,155.65 423.27,155.65 328.21,155.65 293.98,128.9 167.86,30.33 297.14,30.33  "/>
	<polygon style="fill:#CFC8AB;" points="328.21,155.65 293.98,128.9 293.98,434.67 423.27,434.67 423.27,155.65  "/>
	<path style="fill:#ba955b;" d="M167.86,30.33L41.73,128.9v305.77h60.28V270.19c0-36.37,29.48-65.85,65.85-65.85   c36.36,0,65.84,29.48,65.84,65.85v164.48h60.28V128.9L167.86,30.33z"/>
	<path style="fill:#945136;" d="M233.7,270.19v164.48H102.01V270.19c0-36.37,29.48-65.85,65.85-65.85   C204.22,204.34,233.7,233.82,233.7,270.19z"/>
	<path style="fill:#591200;" d="M462.118,149.741L301.761,24.418c-1.318-1.031-2.944-1.591-4.618-1.591h-129.27   c-0.047,0.001-0.09,0-0.134,0.001c-1.74,0.035-3.308,0.639-4.552,1.631L2.882,149.741c-3.264,2.55-3.842,7.264-1.291,10.527   c1.479,1.893,3.686,2.882,5.914,2.882c1.615,0,3.242-0.52,4.613-1.591l22.115-17.284v290.398c0,4.142,3.357,7.5,7.5,7.5h60.279   c4.143,0,7.5-3.358,7.5-7.5V270.188c0-32.171,26.173-58.345,58.345-58.345s58.345,26.173,58.345,58.345v164.485   c0,4.142,3.357,7.5,7.5,7.5h189.564c4.143,0,7.5-3.358,7.5-7.5V185.65c0-4.142-3.357-7.5-7.5-7.5s-7.5,3.358-7.5,7.5v241.523   H301.482V144.276l22.115,17.284c1.318,1.031,2.944,1.591,4.618,1.591H457.5c3.201,0,6.049-2.031,7.091-5.058   C465.634,155.066,464.641,151.712,462.118,149.741z M286.482,427.174h-45.279V270.188c0-40.442-32.902-73.345-73.345-73.345   s-73.345,32.902-73.345,73.345v156.985H49.234V132.553l118.624-92.708l118.624,92.708V427.174z M330.798,148.15L189.634,37.827   H294.56L435.724,148.15H330.798z"/>
	<path style="fill:#591200;" d="M203.702,427.174h-71.689c-4.143,0-7.5,3.358-7.5,7.5s3.357,7.5,7.5,7.5h71.689   c4.143,0,7.5-3.358,7.5-7.5S207.845,427.174,203.702,427.174z"/>
</g>















</svg>
